<?xml version="1.0" encoding="UTF-8"?>
<svg width="300px" height="300px" viewBox="0 0 300 300" version="1.1" xmlns="http://www.w3.org/2000/svg" xmlns:xlink="http://www.w3.org/1999/xlink">
    <title>airplane</title>
    <g id="airplane" stroke="none" stroke-width="1" fill="none" fill-rule="evenodd">
        <g id="outlines" transform="translate(44.0816, 53.4892)">
            <path d="M122.23011,47.7958644 L211.887328,49.606726 L214.336844,52.1062163 L214.336844,74.553123 L212.549079,76.9495206 C212.442266,76.9812664 212.347064,77.0095616 212.2559,77.0366566 L212.147957,77.0687384 C212.130128,77.0740374 212.112339,77.0793244 212.09453,77.0846174 L211.93207,77.1329022 L211.818312,77.1667124 C211.173984,77.3582136 210.17784,77.6542779 206.653026,78.7018902 C199.774298,80.7463216 199.774298,80.7463216 188.964868,83.9589993 C178.234052,87.1483122 171.688254,89.093793 165.130499,91.0428276 L163.615049,91.4932357 C153.822821,94.40359 143.290113,97.5340232 118.212235,104.987436 L115.00995,102.368218 L119.689575,50.072535 L122.23011,47.7958644 Z M124.461,52.8413547 L120.318,99.1443547 L120.564328,99.0722056 C143.360324,92.2969929 153.262611,89.3539277 162.696484,86.5500802 L163.706029,86.2500324 C170.263784,84.3009978 176.809582,82.355517 187.540398,79.1662041 C198.349828,75.9535264 198.349828,75.9535264 205.228556,73.909095 C207.364807,73.2741785 208.572254,72.9153126 209.336,72.688471 L209.336,54.5563547 L124.461,52.8413547 Z" id="Path-2" fill="#007BFF" fill-rule="nonzero"></path>
            <path d="M4.72016015,47.7958644 L94.3773784,49.606726 L96.8268946,52.1062163 L96.8268946,74.553123 L95.0391295,76.9495206 C94.932317,76.9812664 94.8371145,77.0095616 94.7459503,77.0366566 L94.638007,77.0687384 C94.620178,77.0740374 94.6023894,77.0793244 94.5845805,77.0846174 L94.4221205,77.1329022 L94.3083621,77.1667124 C93.664034,77.3582136 92.6678909,77.6542779 89.1430768,78.7018902 C82.2643486,80.7463216 82.2643486,80.7463216 71.4549185,83.9589993 C60.7241025,87.1483122 54.1783047,89.093793 47.6205497,91.0428276 L46.1050991,91.4932357 C36.3128718,94.40359 25.7801631,97.5340232 0.702285379,104.987436 L-2.5,102.368218 L2.17962594,50.072535 L4.72016015,47.7958644 Z M6.95105048,52.8413547 L2.80805048,99.1443547 L3.05437889,99.0722056 C25.8503741,92.2969929 35.7526611,89.3539277 45.1865342,86.5500802 L46.1960799,86.2500324 C52.7538349,84.3009978 59.2996327,82.355517 70.0304487,79.1662041 C80.8398788,75.9535264 80.8398788,75.9535264 87.718607,73.909095 C89.854858,73.2741785 91.0623042,72.9153126 91.8260505,72.688471 L91.8260505,54.5563547 L6.95105048,52.8413547 Z" id="Path-2" fill="#007BFF" fill-rule="nonzero" transform="translate(47.1634, 76.3917) scale(-1, 1) translate(-47.1634, -76.3917)"></path>
            <path d="M118.693568,16.9231143 C122.835703,16.9231143 126.193568,20.2809786 126.193568,24.4231143 C126.193568,24.6370998 126.18441,24.8509872 126.166119,25.0641895 L111.858295,191.840149 L110.849575,193.639735 C109.195371,194.857523 107.734761,195.521584 106.298846,195.521584 C104.929894,195.521584 103.423289,194.908064 101.556479,193.751808 L100.381583,191.835016 L86.4190158,25.0487908 C86.0734642,20.9210939 89.1394987,17.2948095 93.2671956,16.9492579 C93.4752995,16.9318364 93.6840403,16.9231143 93.8928721,16.9231143 L118.693568,16.9231143 Z M118.693568,21.9231143 L93.8928721,21.9231143 C93.8232615,21.9231143 93.7536813,21.9260217 93.6843133,21.9318288 C92.3084143,22.0470127 91.2864028,23.2557741 91.4015867,24.6316731 L105.253805,190.106114 L105.269995,190.114424 C105.397698,190.178842 105.518666,190.236315 105.632683,190.286841 L105.798471,190.35742 C106.094589,190.478005 106.274917,190.521584 106.298846,190.521584 C106.367516,190.521584 106.565996,190.445915 106.868665,190.277839 L106.978805,190.215114 L121.184418,24.636806 C121.187467,24.6012723 121.189754,24.5656815 121.191279,24.530058 L121.193568,24.4231143 C121.193568,23.0424024 120.07428,21.9231143 118.693568,21.9231143 Z" id="Path-3" fill="#007BFF" fill-rule="nonzero"></path>
            <path d="M113.115721,153.0732 L152.310013,160.606792 L154.338122,163.061852 L154.338122,179.987793 L152.260824,182.451799 L110.695849,189.582294 L107.780158,186.931201 L110.150841,155.341173 L113.115721,153.0732 Z M114.926148,158.51226 L113.005148,184.11326 L149.337148,177.88026 L149.337148,165.12626 L114.926148,158.51226 Z" id="Path-4" fill="#007BFF" fill-rule="nonzero"></path>
            <path d="M62.9462943,153.0732 L102.140586,160.606792 L104.168695,163.061852 L104.168695,179.987793 L102.091397,182.451799 L60.5264221,189.582294 L57.6107307,186.931201 L59.9814138,155.341173 L62.9462943,153.0732 Z M64.7567205,158.51226 L62.8357205,184.11326 L99.1677205,177.88026 L99.1677205,165.12626 L64.7567205,158.51226 Z" id="Path-4" fill="#007BFF" fill-rule="nonzero" transform="translate(80.8897, 171.3277) scale(-1, 1) translate(-80.8897, -171.3277)"></path>
            <polygon id="Path-5" fill="#007BFF" fill-rule="nonzero" points="106.297511 142.866231 108.210626 145.136629 114.996389 153.189663 111.17283 156.411526 106.299554 150.62856 101.435442 156.41021 97.6096664 153.190979 104.385959 145.137945"></polygon>
            <path d="M106.298846,63.9899877 C110.829312,63.9899877 115.355645,65.8622372 119.877845,69.6067362 L116.626453,107.657211 C113.235917,109.157109 109.793381,109.907058 106.298846,109.907058 C102.804312,109.907058 99.3093415,109.157109 95.813936,107.657211 L92.2808999,69.6067362 C97.0957323,65.8622372 101.768381,63.9899877 106.298846,63.9899877 Z" id="Path-6" fill="#D8EBFF"></path>
            <path d="M106.298846,62.4899877 C111.206054,62.4899877 116.059428,64.4975126 120.834498,68.4513942 L121.439246,68.9521412 L121.372399,69.734445 L118.121007,107.78492 L118.045401,108.66972 L117.233293,109.028979 C113.65445,110.61218 110.00567,111.407058 106.298846,111.407058 C102.596322,111.407058 98.9008281,110.614081 95.2224351,109.035662 L94.4028188,108.68396 L94.3203605,107.795892 L90.7873244,69.7454166 L90.7113479,68.9271565 L91.3600458,68.4226637 C96.4207287,64.4869665 101.40467,62.4899877 106.298846,62.4899877 Z M106.298846,65.4899877 C102.392515,65.4899877 98.3151453,67.0258941 94.0560082,70.1457121 L93.8508999,70.2969877 L97.2228999,106.613988 L97.5089244,106.726102 C100.266048,107.778354 103.011469,108.335037 105.751014,108.400512 L106.298846,108.407058 C109.216399,108.407058 112.097641,107.850006 114.950926,106.731297 L115.2079,106.626988 L118.3149,70.2729877 L118.121507,70.1203009 C114.260274,67.120081 110.455306,65.5935158 106.688392,65.4950784 L106.298846,65.4899877 Z" id="Path-6" fill="#007BFF" fill-rule="nonzero"></path>
            <path d="M146.785888,33.7312324 C149.756177,33.7312324 151.785,36.3329931 153.596957,41.0789134 L153.761391,41.5096031 L153.761391,52.5317563 L139.3456,52.5317563 L139.3456,41.4201884 L139.57677,40.9206585 C141.74061,36.2448596 143.904265,33.7312324 146.785888,33.7312324 Z M146.7556,38.8422324 L146.688735,38.8997291 C146.575973,38.9991187 146.446322,39.131014 146.303434,39.2970147 C145.740695,39.9507766 145.107352,40.9755909 144.430054,42.3574757 L144.3456,42.5312324 L144.3456,47.5312324 L148.7606,47.5312324 L148.7606,42.4412324 L148.66712,42.2072513 C148.15201,40.9477848 147.651978,39.9930326 147.190093,39.3560231 L147.07543,39.2033979 C146.971433,39.0700325 146.876634,38.9623967 146.793637,38.8790924 L146.7556,38.8422324 Z" id="Path-7" fill="#007BFF" fill-rule="nonzero"></path>
            <path d="M65.7858885,33.7312324 C68.7561775,33.7312324 70.7849995,36.3329931 72.5969569,41.0789134 L72.761391,41.5096031 L72.761391,52.5317563 L58.3456002,52.5317563 L58.3456002,41.4201884 L58.5767699,40.9206585 C60.7406102,36.2448596 62.904265,33.7312324 65.7858885,33.7312324 Z M65.7556002,38.8422324 L65.6887349,38.8997291 C65.5759731,38.9991187 65.4463222,39.131014 65.3034337,39.2970147 C64.7406952,39.9507766 64.1073518,40.9755909 63.4300536,42.3574757 L63.3456002,42.5312324 L63.3456002,47.5312324 L67.7606002,47.5312324 L67.7606002,42.4412324 L67.6671201,42.2072513 C67.1520096,40.9477848 66.6519778,39.9930326 66.1900932,39.3560231 L66.0754301,39.2033979 C65.9714334,39.0700325 65.8766341,38.9623967 65.7936365,38.8790924 L65.7556002,38.8422324 Z" id="Path-7" fill="#007BFF" fill-rule="nonzero" transform="translate(65.5535, 43.1315) scale(-1, 1) translate(-65.5535, -43.1315)"></path>
            <path d="M104.091206,-1.5156496 C105.039031,-2.75896771 106.882678,-2.83706058 107.932248,-1.67834778 C111.0644,1.77951034 113.326663,4.62464646 114.734265,6.89531072 C116.174602,9.21878157 117.666999,12.7843304 119.258985,17.6449737 C119.788398,19.261375 118.584061,20.9231143 116.88317,20.9231143 L96.2344895,20.9231143 C94.5090616,20.9231143 93.3023486,19.2166199 93.8774413,17.5898533 C95.5580703,12.8358522 97.0261004,9.31973547 98.3107477,7.00097281 C99.5821012,4.70620538 101.506351,1.87505607 104.091206,-1.5156496 Z M106.246489,3.966 L106.127541,4.13036321 C104.644486,6.19202832 103.495828,7.95941014 102.684377,9.42406314 C101.863915,10.9049809 100.909263,13.0611333 99.8318224,15.8767036 L99.8134895,15.923 L113.373489,15.923 L113.226325,15.5249162 C112.291485,13.0212163 111.417082,11.0903404 110.617197,9.74799706 L110.484576,9.52972524 C109.569518,8.05360518 108.164508,6.20526999 106.275971,4.00085645 L106.246489,3.966 Z" id="Path-8" fill="#007BFF" fill-rule="nonzero"></path>
            <path d="M101.854547,4.31184235 C103.235259,4.31184235 104.354547,5.43113048 104.354547,6.81184235 C104.354547,8.19255423 103.235259,9.31184235 101.854547,9.31184235 L74.1945383,9.31184235 C72.8138264,9.31184235 71.6945383,8.19255423 71.6945383,6.81184235 C71.6945383,5.43113048 72.8138264,4.31184235 74.1945383,4.31184235 L101.854547,4.31184235 Z" id="Path-9" fill="#007BFF" fill-rule="nonzero"></path>
            <path d="M138.854547,4.31184235 C140.235259,4.31184235 141.354547,5.43113048 141.354547,6.81184235 C141.354547,8.19255423 140.235259,9.31184235 138.854547,9.31184235 L111.194538,9.31184235 C109.813826,9.31184235 108.694538,8.19255423 108.694538,6.81184235 C108.694538,5.43113048 109.813826,4.31184235 111.194538,4.31184235 L138.854547,4.31184235 Z" id="Path-9" fill="#007BFF" fill-rule="nonzero" transform="translate(125.0245, 6.8118) scale(-1, 1) translate(-125.0245, -6.8118)"></path>
        </g>
    </g>
</svg>