<?xml version="1.0" encoding="UTF-8"?>
<svg width="300px" height="300px" viewBox="0 0 300 300" version="1.1" xmlns="http://www.w3.org/2000/svg" xmlns:xlink="http://www.w3.org/1999/xlink">
    <title>boat</title>
    <g id="boat" stroke="none" stroke-width="1" fill="none" fill-rule="evenodd">
        <g id="outlines" transform="translate(100.9037, 46.3226)">
            <path d="M78.9567093,-1.751214 L99.9767899,19.6643984 L100.692624,21.4156124 L100.692624,64.4257612 L100.041516,66.108496 L86.856,80.596 L86.8561525,180.041316 C86.8561525,181.3668 85.8246165,182.451355 84.5205281,182.535999 L84.3561525,182.541316 C82.9754406,182.541316 81.8561525,181.422028 81.8561525,180.041316 L81.8561525,79.6284832 L82.5072599,77.9457484 L95.692,63.458 L95.692,22.437 L79.672,6.116 L79.672543,46.6109449 L76.4940142,49.0171034 L63.3214713,45.3024899 C61.9925866,44.9277488 61.2191004,43.5466873 61.5938415,42.2178026 C61.9685826,40.888918 63.3496441,40.1154318 64.6785287,40.4901729 L74.672,43.308 L74.672543,2.48912002e-13 L78.9567093,-1.751214 Z" id="Path-35" fill="#007BFF" fill-rule="nonzero"></path>
            <path d="M48.5447252,40.808408 C51.3455645,40.808408 54.2679958,49.863486 57.3120192,67.973642 L63.7002484,67.973642 C63.7002484,50.9887682 63.7002484,42.4018419 63.7002484,42.2128631 C61.5026682,29.7056612 50.8255578,18.6677458 48.5447252,18.6677458 C45.4679425,18.6677458 37.0873507,30.126241 33.8926236,42.2128631 C33.8926236,42.2128631 33.8926236,67.973642 33.8926236,67.973642 C33.8926236,67.973642 36.1345582,67.973642 40.6184276,67.973642 C43.1017867,49.863486 45.743886,40.808408 48.5447252,40.808408 Z" id="Path-37" fill="#D8EBFF"></path>
            <path d="M48.5447252,18.1677458 C50.011489,18.1677458 53.4317697,21.2706583 56.5542875,25.45088 C60.3665649,30.5545066 63.1890278,36.4140583 64.2002484,42.2128631 L64.2002484,67.973642 L63.7002484,68.473642 L57.3120192,68.473642 L56.818936,68.0565212 C53.8479059,50.3806322 50.9199408,41.308408 48.5447252,41.308408 C46.1822822,41.308408 43.5358816,50.3782275 41.113792,68.0415689 L40.6184276,68.473642 L33.8926236,68.473642 L33.3926236,67.973642 L33.3926236,42.2135251 L33.4092248,42.0850915 C36.37619,30.8601617 44.7279144,18.1677458 48.5447252,18.1677458 Z M48.5447252,19.1677458 C45.3671723,19.1677458 37.234008,31.528008 34.3760224,42.3406347 L34.3926236,42.2767458 L34.3926236,67.4727458 L40.1816236,67.4727458 L40.2034514,67.3228683 C42.6964843,49.3526514 45.283932,40.4977814 48.4426329,40.3114136 L48.5447252,40.308408 C51.7711882,40.308408 54.6880858,49.3463397 57.8051024,67.8907627 L57.7346236,67.4727458 L63.1996236,67.4727458 L63.2005836,44.8073202 C63.2006033,44.7575919 63.2006242,44.7092047 63.2006463,44.6620999 L63.2015911,43.6590809 C63.2016408,43.6303021 63.2016924,43.6022772 63.2017459,43.5749474 L63.2024837,43.2765943 C63.2025535,43.2538854 63.2026255,43.2316366 63.2026998,43.2097892 L63.203431,43.0224155 C63.2035194,43.002448 63.2036103,42.9827058 63.2037037,42.96313 L63.2046141,42.7898575 C63.2049415,42.7325412 63.2052935,42.6751374 63.2056719,42.6160604 L63.2064644,42.4952056 C63.2068788,42.4331928 63.2073208,42.3684496 63.2077923,42.2993902 C62.234014,36.7572757 59.4783665,31.0364355 55.7531254,26.0493275 C52.8332545,22.1403961 49.5565594,19.1677458 48.5447252,19.1677458 Z" id="Path-37" fill="#007BFF" fill-rule="nonzero"></path>
            <path d="M14.9573486,-1.751214 L35.9774292,19.6643984 L36.6932629,21.4156124 L36.6932629,64.4257612 L36.0421554,66.108496 L22.8566393,80.596 L22.8567917,180.041316 C22.8567917,181.3668 21.8252558,182.451355 20.5211674,182.535999 L20.3567917,182.541316 C18.9760799,182.541316 17.8567917,181.422028 17.8567917,180.041316 L17.8567917,79.6284832 L18.5078992,77.9457484 L31.6926393,63.458 L31.6926393,22.437 L15.6726393,6.116 L15.6731823,46.6109449 L12.4946535,49.0171034 L-0.677889464,45.3024899 C-2.00677411,44.9277488 -2.7802603,43.5466873 -2.40551923,42.2178026 C-2.03077815,40.888918 -0.649716627,40.1154318 0.67916802,40.4901729 L10.6726393,43.308 L10.6731823,2.99760217e-14 L14.9573486,-1.751214 Z" id="Path-35" fill="#007BFF" fill-rule="nonzero" transform="translate(17.0966, 90.3951) scale(-1, 1) translate(-17.0966, -90.3951)"></path>
            <path d="M50.5145476,15.6941799 C59.5167649,23.7735119 64.8658137,32.7178166 66.4671116,42.4921525 L66.5,42.8963314 C66.5,62.532831 65.4817685,94.6483547 63.4456722,139.263328 L60.9482716,141.649354 L37.4878184,141.649354 L34.9917888,139.290195 C32.4570743,94.3689961 31.1894505,62.2466151 31.1894505,42.8963314 L31.2488811,42.3544634 C33.4071291,32.6337306 38.7172828,23.7544635 47.1198062,15.745142 L50.5145476,15.6941799 Z M48.8944505,21.0177426 L48.5819588,21.3406784 C42.0268853,28.1469776 37.8912488,35.5056378 36.1300199,43.4381994 L36.1894505,43.1767426 L36.1898299,43.4771417 C36.2143636,62.38097 37.4287847,93.3413312 39.8335797,136.333838 L39.8504505,136.648743 L58.5594505,136.648743 L58.5716235,136.377707 C60.5040674,93.6543201 61.4799798,62.6843138 61.4996951,43.48633 L61.4996951,43.1067426 L61.4445575,42.7866272 C60.0592834,35.0896616 55.9595575,27.9001368 49.0764292,21.1925804 L48.8944505,21.0177426 Z" id="Path-36" fill="#007BFF" fill-rule="nonzero"></path>
            <path d="M48.8447252,39.208408 C53.2129594,39.208408 56.0728951,47.6637991 59.2852336,66.285148 L59.2994545,66.373408 L64,66.373642 L66,68.373642 C66,76.8254138 59.934713,81.1303534 48.8447252,81.1303534 C37.7251535,81.1303534 31.7972796,76.7784569 32.1948081,68.280189 L34.1926236,66.373642 L39.1764545,66.373408 L39.1823045,66.3405489 C41.7973968,47.8653001 44.3732741,39.384017 48.7086693,39.2111087 L48.8447252,39.208408 Z M48.8574545,43.399408 C48.7429672,43.5406619 48.620028,43.7169875 48.4880187,43.9366031 C47.9115668,44.8956103 47.2990429,46.4467564 46.6824624,48.5599187 C45.3944813,52.9741241 44.1293274,59.6795151 42.8998853,68.6453498 L40.9184276,70.373642 L36.2624545,70.373408 L36.2743652,70.4592338 C36.9139011,74.8756595 40.7241071,77.0545884 48.4352687,77.128411 L48.8447252,77.1303534 C56.8396726,77.1303534 60.9290407,74.9262614 61.8145475,70.4114582 L61.8214545,70.373408 L57.6120192,70.373642 L55.6396865,68.7051591 C54.132405,59.7377173 52.6593271,53.030802 51.2338493,48.6139959 C50.5503352,46.4961449 49.8877945,44.9403128 49.2775358,43.9747914 C49.1359147,43.7507255 49.0042021,43.5699765 48.88738,43.4322667 L48.8574545,43.399408 Z" id="Path-37" fill="#007BFF" fill-rule="nonzero"></path>
            <path d="M56.4478104,137.149354 L58.4478104,139.149354 L58.4478104,157.612636 L56.4478104,159.612636 L41.9620382,159.612636 L39.9620382,157.612636 L39.9620382,139.149354 L41.9620382,137.149354 L56.4478104,137.149354 Z M54.4470382,141.149354 L43.9620382,141.149354 L43.9620382,155.612354 L54.4470382,155.612354 L54.4470382,141.149354 Z" id="Path-38" fill="#007BFF" fill-rule="nonzero"></path>
            <path d="M21.55791,153.21557 L24.4961533,153.751689 L21.3125181,190.477763 L19.8181224,191.84822 L12.6599796,191.84822 L11.2161321,189.941644 L21.55791,153.21557 Z M20.1329796,169.340146 L14.6399796,188.848146 L18.4419796,188.848146 L20.1329796,169.340146 Z" id="Path-39" fill="#007BFF" fill-rule="nonzero"></path>
            <path d="M84.5073618,153.21557 L87.4456051,153.751689 L84.2619699,190.477763 L82.7675742,191.84822 L75.6094315,191.84822 L74.1655839,189.941644 L84.5073618,153.21557 Z M83.0824315,169.340146 L77.5894315,188.848146 L81.3914315,188.848146 L83.0824315,169.340146 Z" id="Path-39" fill="#007BFF" fill-rule="nonzero" transform="translate(80.8056, 172.5319) scale(-1, 1) translate(-80.8056, -172.5319)"></path>
            <polygon id="Path-40" fill="#007BFF" fill-rule="nonzero" points="66.5138516 163.732819 69.2666055 165.540197 72.9798451 174.110819 77.6119022 174.111735 77.6119022 180.111735 71.0104826 180.111735 68.2577287 178.304356 64.5438451 169.732819 34.2838451 169.732819 30.3823421 178.349506 27.6495922 180.111735 21.0218451 180.111735 21.0218451 174.111735 25.7148451 174.110819 29.6178678 165.495047 32.3506177 163.732819"></polygon>
            <path d="M88.8613815,187.34822 L91.8613815,190.34822 L91.8613815,206.105973 L88.8613815,209.105973 L9.78562458,209.105973 L6.78562458,206.105973 L6.78562458,190.34822 L9.78562458,187.34822 L88.8613815,187.34822 Z M85.8606246,193.34822 L12.7856246,193.34822 L12.7856246,203.10522 L85.8606246,203.10522 L85.8606246,193.34822 Z" id="Path-41" fill="#007BFF" fill-rule="nonzero"></path>
        </g>
    </g>
</svg>