<?xml version="1.0" encoding="UTF-8"?>
<svg width="300px" height="300px" viewBox="0 0 300 300" version="1.1" xmlns="http://www.w3.org/2000/svg" xmlns:xlink="http://www.w3.org/1999/xlink">
    <title>multicopter</title>
    <g id="multicopter" stroke="none" stroke-width="1" fill="none" fill-rule="evenodd">
        <g id="outlines" transform="translate(54.2457, 33.8613)" fill="#007BFF">
            <path d="M100.549318,43.7702395 L103.039389,46.0476525 L107.192241,92.5192395 L120.402241,104.938239 L165.863289,108.90996 L168.145764,111.400479 L168.145764,121.272731 L165.822048,123.766508 L119.802241,127.019239 L107.198241,140.284239 L103.03887,185.639365 L100.549318,187.911048 L90.8717056,187.911048 L88.3780177,185.588589 L85.1532414,140.289239 L73.1452414,128.096239 L26.345698,123.762078 L24.0762414,121.272731 L24.0762414,111.400479 L26.3228803,108.91335 L72.4632414,104.212239 L86.5332414,90.7032395 L89.5287267,46.1027482 L92.0231098,43.7702395 L100.549318,43.7702395 Z M98.2632414,48.7702395 L94.3602414,48.7702395 L91.457798,92.0045704 L90.69489,93.6404077 L75.3059829,108.416144 L73.827869,109.099944 L29.0762414,113.658239 L29.0762414,118.993239 L74.5160506,123.201833 L76.0667139,123.936956 L89.3622419,137.436989 L90.0747231,139.013673 L93.2002414,182.910239 L98.2672414,182.910239 L102.298584,138.962897 L102.97582,137.469147 L116.845867,122.872205 L118.481898,122.100495 L163.145241,118.942239 L163.145241,113.691239 L119.103566,109.844935 L117.608569,109.175753 L103.075614,95.511061 L102.298065,93.9123111 L98.2632414,48.7702395 Z" id="Path-22" fill-rule="nonzero"></path>
            <g id="propeller" transform="translate(165, 56.8009)">
                <path d="M24.86409,0 C28.5710213,0 25.2628092,25.5968215 22.2883879,38.8895276 C19.2100302,46.0463981 16.1373319,51.0010388 13.0702929,53.7534498 C11.553237,49.2789288 11.553237,41.7825986 13.0702929,31.2644594 C17.2476201,12.5959601 21.1571588,0 24.86409,0 Z" id="Path-23"></path>
                <path d="M24.86409,-0.5 C27.1139736,-0.5 27.4554537,4.90712829 26.5796778,14.5054317 C25.8724676,22.2562934 24.3414062,32.0043374 22.7477015,39.0870904 C19.643242,46.3046448 16.5358616,51.3152095 13.4042438,54.1255746 L12.5967687,53.913995 C11.0479708,49.3458521 11.0479708,41.7832375 12.5823592,31.1552777 C17.3654905,9.77943647 21.0458347,-0.5 24.86409,-0.5 Z M24.86409,0.5 C21.8686728,0.5 18.1300047,10.9423389 13.565172,31.335837 C12.1507481,41.1424012 12.0641507,48.2908983 13.2877121,52.7539686 L13.311501,52.837 L13.487669,52.6618438 C16.1614817,49.9408015 18.8601002,45.4843882 21.5484523,39.3594454 L21.8004542,38.7803458 C23.3561516,31.8279248 24.8805243,22.1224668 25.5838146,14.4145663 C26.3589384,5.91938718 26.0166841,0.5 24.86409,0.5 Z" id="Path-23" fill-rule="nonzero"></path>
                <path d="M12.9315891,64.9221359 C16.6385204,64.9221359 13.3303083,90.5189574 10.355887,103.811663 C7.27752925,110.968534 4.20483092,115.923175 1.13779198,118.675586 C-0.379263992,114.201065 -0.379263992,106.704735 1.13779198,96.1865954 C5.31511918,77.5180961 9.22465779,64.9221359 12.9315891,64.9221359 Z" id="Path-23" transform="translate(7.2881, 91.7989) rotate(180) translate(-7.2881, -91.7989)"></path>
                <path d="M12.9151909,64.5500112 C15.1650744,64.5500112 15.5065546,69.9571395 14.6307787,79.5554428 C13.9235684,87.3063046 12.3925071,97.0543486 10.7988023,104.137102 C7.69434288,111.354656 4.58696245,116.365221 1.45534464,119.175586 L0.647869512,118.964006 C-0.900928294,114.395863 -0.900928294,106.833249 0.633460034,96.2052889 C5.41659132,74.8294477 9.09693554,64.5500112 12.9151909,64.5500112 Z M12.9151909,65.5500112 C9.9197737,65.5500112 6.18110556,75.9923501 1.61627281,96.3858482 C0.201848973,106.192412 0.115251596,113.340909 1.33881299,117.80398 L1.36260182,117.887011 L1.53876982,117.711855 C4.21258254,114.990813 6.91120101,110.534399 9.59955314,104.409457 L9.85155501,103.830357 C11.4072525,96.877936 12.9316251,87.172478 13.6349155,79.4645775 C14.4100393,70.9693984 14.0677849,65.5500112 12.9151909,65.5500112 Z" id="Path-23" fill-rule="nonzero" transform="translate(7.2799, 91.8628) rotate(180) translate(-7.2799, -91.8628)"></path>
                <path d="M21.4840026,59.0396957 C21.4840026,63.3575898 17.690734,67.4364721 13.4602791,67.4221965 C9.23025016,67.4075836 5.28807383,63.3111759 5.28807383,59.001467 C5.28807383,54.695279 9.2720278,50.5665508 13.477346,50.5807337 C17.669368,50.5952233 21.4840026,54.7383569 21.4840026,59.0396957 Z M10.2880738,59.001467 C10.2880738,60.5947445 12.0419297,62.4172171 13.4773515,62.4221688 C14.8511025,62.4268105 16.4840026,60.6709613 16.4840026,59.0396957 C16.4840026,57.4086604 14.8053074,55.5854035 13.4602736,55.5807604 C12.0678306,55.5760575 10.2880738,57.4204895 10.2880738,59.001467 Z" id="Path-24" fill-rule="nonzero"></path>
            </g>
            <g id="propeller" transform="translate(0, 56.8009)">
                <path d="M24.86409,0 C28.5710213,0 25.2628092,25.5968215 22.2883879,38.8895276 C19.2100302,46.0463981 16.1373319,51.0010388 13.0702929,53.7534498 C11.553237,49.2789288 11.553237,41.7825986 13.0702929,31.2644594 C17.2476201,12.5959601 21.1571588,0 24.86409,0 Z" id="Path-23"></path>
                <path d="M24.86409,-0.5 C27.1139736,-0.5 27.4554537,4.90712829 26.5796778,14.5054317 C25.8724676,22.2562934 24.3414062,32.0043374 22.7477015,39.0870904 C19.643242,46.3046448 16.5358616,51.3152095 13.4042438,54.1255746 L12.5967687,53.913995 C11.0479708,49.3458521 11.0479708,41.7832375 12.5823592,31.1552777 C17.3654905,9.77943647 21.0458347,-0.5 24.86409,-0.5 Z M24.86409,0.5 C21.8686728,0.5 18.1300047,10.9423389 13.565172,31.335837 C12.1507481,41.1424012 12.0641507,48.2908983 13.2877121,52.7539686 L13.311501,52.837 L13.487669,52.6618438 C16.1614817,49.9408015 18.8601002,45.4843882 21.5484523,39.3594454 L21.8004542,38.7803458 C23.3561516,31.8279248 24.8805243,22.1224668 25.5838146,14.4145663 C26.3589384,5.91938718 26.0166841,0.5 24.86409,0.5 Z" id="Path-23" fill-rule="nonzero"></path>
                <path d="M12.9315891,64.9221359 C16.6385204,64.9221359 13.3303083,90.5189574 10.355887,103.811663 C7.27752925,110.968534 4.20483092,115.923175 1.13779198,118.675586 C-0.379263992,114.201065 -0.379263992,106.704735 1.13779198,96.1865954 C5.31511918,77.5180961 9.22465779,64.9221359 12.9315891,64.9221359 Z" id="Path-23" transform="translate(7.2881, 91.7989) rotate(180) translate(-7.2881, -91.7989)"></path>
                <path d="M12.9151909,64.5500112 C15.1650744,64.5500112 15.5065546,69.9571395 14.6307787,79.5554428 C13.9235684,87.3063046 12.3925071,97.0543486 10.7988023,104.137102 C7.69434288,111.354656 4.58696245,116.365221 1.45534464,119.175586 L0.647869512,118.964006 C-0.900928294,114.395863 -0.900928294,106.833249 0.633460034,96.2052889 C5.41659132,74.8294477 9.09693554,64.5500112 12.9151909,64.5500112 Z M12.9151909,65.5500112 C9.9197737,65.5500112 6.18110556,75.9923501 1.61627281,96.3858482 C0.201848973,106.192412 0.115251596,113.340909 1.33881299,117.80398 L1.36260182,117.887011 L1.53876982,117.711855 C4.21258254,114.990813 6.91120101,110.534399 9.59955314,104.409457 L9.85155501,103.830357 C11.4072525,96.877936 12.9316251,87.172478 13.6349155,79.4645775 C14.4100393,70.9693984 14.0677849,65.5500112 12.9151909,65.5500112 Z" id="Path-23" fill-rule="nonzero" transform="translate(7.2799, 91.8628) rotate(180) translate(-7.2799, -91.8628)"></path>
                <path d="M21.4840026,59.0396957 C21.4840026,63.3575898 17.690734,67.4364721 13.4602791,67.4221965 C9.23025016,67.4075836 5.28807383,63.3111759 5.28807383,59.001467 C5.28807383,54.695279 9.2720278,50.5665508 13.477346,50.5807337 C17.669368,50.5952233 21.4840026,54.7383569 21.4840026,59.0396957 Z M10.2880738,59.001467 C10.2880738,60.5947445 12.0419297,62.4172171 13.4773515,62.4221688 C14.8511025,62.4268105 16.4840026,60.6709613 16.4840026,59.0396957 C16.4840026,57.4086604 14.8053074,55.5854035 13.4602736,55.5807604 C12.0678306,55.5760575 10.2880738,57.4204895 10.2880738,59.001467 Z" id="Path-24" fill-rule="nonzero"></path>
            </g>
            <g id="propeller" transform="translate(95.7543, 33.6387) rotate(69) translate(-95.7543, -33.6387)translate(82.5, -25.6991)">
                <path d="M24.86409,0 C28.5710213,0 25.2628092,25.5968215 22.2883879,38.8895276 C19.2100302,46.0463981 16.1373319,51.0010388 13.0702929,53.7534498 C11.553237,49.2789288 11.553237,41.7825986 13.0702929,31.2644594 C17.2476201,12.5959601 21.1571588,0 24.86409,0 Z" id="Path-23"></path>
                <path d="M24.86409,-0.5 C27.1139736,-0.5 27.4554537,4.90712829 26.5796778,14.5054317 C25.8724676,22.2562934 24.3414062,32.0043374 22.7477015,39.0870904 C19.643242,46.3046448 16.5358616,51.3152095 13.4042438,54.1255746 L12.5967687,53.913995 C11.0479708,49.3458521 11.0479708,41.7832375 12.5823592,31.1552777 C17.3654905,9.77943647 21.0458347,-0.5 24.86409,-0.5 Z M24.86409,0.5 C21.8686728,0.5 18.1300047,10.9423389 13.565172,31.335837 C12.1507481,41.1424012 12.0641507,48.2908983 13.2877121,52.7539686 L13.311501,52.837 L13.487669,52.6618438 C16.1614817,49.9408015 18.8601002,45.4843882 21.5484523,39.3594454 L21.8004542,38.7803458 C23.3561516,31.8279248 24.8805243,22.1224668 25.5838146,14.4145663 C26.3589384,5.91938718 26.0166841,0.5 24.86409,0.5 Z" id="Path-23" fill-rule="nonzero"></path>
                <path d="M12.9315891,64.9221359 C16.6385204,64.9221359 13.3303083,90.5189574 10.355887,103.811663 C7.27752925,110.968534 4.20483092,115.923175 1.13779198,118.675586 C-0.379263992,114.201065 -0.379263992,106.704735 1.13779198,96.1865954 C5.31511918,77.5180961 9.22465779,64.9221359 12.9315891,64.9221359 Z" id="Path-23" transform="translate(7.2881, 91.7989) rotate(180) translate(-7.2881, -91.7989)"></path>
                <path d="M12.9151909,64.5500112 C15.1650744,64.5500112 15.5065546,69.9571395 14.6307787,79.5554428 C13.9235684,87.3063046 12.3925071,97.0543486 10.7988023,104.137102 C7.69434288,111.354656 4.58696245,116.365221 1.45534464,119.175586 L0.647869512,118.964006 C-0.900928294,114.395863 -0.900928294,106.833249 0.633460034,96.2052889 C5.41659132,74.8294477 9.09693554,64.5500112 12.9151909,64.5500112 Z M12.9151909,65.5500112 C9.9197737,65.5500112 6.18110556,75.9923501 1.61627281,96.3858482 C0.201848973,106.192412 0.115251596,113.340909 1.33881299,117.80398 L1.36260182,117.887011 L1.53876982,117.711855 C4.21258254,114.990813 6.91120101,110.534399 9.59955314,104.409457 L9.85155501,103.830357 C11.4072525,96.877936 12.9316251,87.172478 13.6349155,79.4645775 C14.4100393,70.9693984 14.0677849,65.5500112 12.9151909,65.5500112 Z" id="Path-23" fill-rule="nonzero" transform="translate(7.2799, 91.8628) rotate(180) translate(-7.2799, -91.8628)"></path>
                <path d="M21.4840026,59.0396957 C21.4840026,63.3575898 17.690734,67.4364721 13.4602791,67.4221965 C9.23025016,67.4075836 5.28807383,63.3111759 5.28807383,59.001467 C5.28807383,54.695279 9.2720278,50.5665508 13.477346,50.5807337 C17.669368,50.5952233 21.4840026,54.7383569 21.4840026,59.0396957 Z M10.2880738,59.001467 C10.2880738,60.5947445 12.0419297,62.4172171 13.4773515,62.4221688 C14.8511025,62.4268105 16.4840026,60.6709613 16.4840026,59.0396957 C16.4840026,57.4086604 14.8053074,55.5854035 13.4602736,55.5807604 C12.0678306,55.5760575 10.2880738,57.4204895 10.2880738,59.001467 Z" id="Path-24" fill-rule="nonzero"></path>
            </g>
            <g id="propeller" transform="translate(95.7543, 198.6387) rotate(69) translate(-95.7543, -198.6387)translate(82.5, 139.3009)">
                <path d="M24.86409,0 C28.5710213,0 25.2628092,25.5968215 22.2883879,38.8895276 C19.2100302,46.0463981 16.1373319,51.0010388 13.0702929,53.7534498 C11.553237,49.2789288 11.553237,41.7825986 13.0702929,31.2644594 C17.2476201,12.5959601 21.1571588,0 24.86409,0 Z" id="Path-23"></path>
                <path d="M24.86409,-0.5 C27.1139736,-0.5 27.4554537,4.90712829 26.5796778,14.5054317 C25.8724676,22.2562934 24.3414062,32.0043374 22.7477015,39.0870904 C19.643242,46.3046448 16.5358616,51.3152095 13.4042438,54.1255746 L12.5967687,53.913995 C11.0479708,49.3458521 11.0479708,41.7832375 12.5823592,31.1552777 C17.3654905,9.77943647 21.0458347,-0.5 24.86409,-0.5 Z M24.86409,0.5 C21.8686728,0.5 18.1300047,10.9423389 13.565172,31.335837 C12.1507481,41.1424012 12.0641507,48.2908983 13.2877121,52.7539686 L13.311501,52.837 L13.487669,52.6618438 C16.1614817,49.9408015 18.8601002,45.4843882 21.5484523,39.3594454 L21.8004542,38.7803458 C23.3561516,31.8279248 24.8805243,22.1224668 25.5838146,14.4145663 C26.3589384,5.91938718 26.0166841,0.5 24.86409,0.5 Z" id="Path-23" fill-rule="nonzero"></path>
                <path d="M12.9315891,64.9221359 C16.6385204,64.9221359 13.3303083,90.5189574 10.355887,103.811663 C7.27752925,110.968534 4.20483092,115.923175 1.13779198,118.675586 C-0.379263992,114.201065 -0.379263992,106.704735 1.13779198,96.1865954 C5.31511918,77.5180961 9.22465779,64.9221359 12.9315891,64.9221359 Z" id="Path-23" transform="translate(7.2881, 91.7989) rotate(180) translate(-7.2881, -91.7989)"></path>
                <path d="M12.9151909,64.5500112 C15.1650744,64.5500112 15.5065546,69.9571395 14.6307787,79.5554428 C13.9235684,87.3063046 12.3925071,97.0543486 10.7988023,104.137102 C7.69434288,111.354656 4.58696245,116.365221 1.45534464,119.175586 L0.647869512,118.964006 C-0.900928294,114.395863 -0.900928294,106.833249 0.633460034,96.2052889 C5.41659132,74.8294477 9.09693554,64.5500112 12.9151909,64.5500112 Z M12.9151909,65.5500112 C9.9197737,65.5500112 6.18110556,75.9923501 1.61627281,96.3858482 C0.201848973,106.192412 0.115251596,113.340909 1.33881299,117.80398 L1.36260182,117.887011 L1.53876982,117.711855 C4.21258254,114.990813 6.91120101,110.534399 9.59955314,104.409457 L9.85155501,103.830357 C11.4072525,96.877936 12.9316251,87.172478 13.6349155,79.4645775 C14.4100393,70.9693984 14.0677849,65.5500112 12.9151909,65.5500112 Z" id="Path-23" fill-rule="nonzero" transform="translate(7.2799, 91.8628) rotate(180) translate(-7.2799, -91.8628)"></path>
                <path d="M21.4840026,59.0396957 C21.4840026,63.3575898 17.690734,67.4364721 13.4602791,67.4221965 C9.23025016,67.4075836 5.28807383,63.3111759 5.28807383,59.001467 C5.28807383,54.695279 9.2720278,50.5665508 13.477346,50.5807337 C17.669368,50.5952233 21.4840026,54.7383569 21.4840026,59.0396957 Z M10.2880738,59.001467 C10.2880738,60.5947445 12.0419297,62.4172171 13.4773515,62.4221688 C14.8511025,62.4268105 16.4840026,60.6709613 16.4840026,59.0396957 C16.4840026,57.4086604 14.8053074,55.5854035 13.4602736,55.5807604 C12.0678306,55.5760575 10.2880738,57.4204895 10.2880738,59.001467 Z" id="Path-24" fill-rule="nonzero"></path>
            </g>
        </g>
    </g>
</svg>