<?xml version="1.0" encoding="UTF-8"?>
<svg width="300px" height="300px" viewBox="0 0 300 300" version="1.1" xmlns="http://www.w3.org/2000/svg" xmlns:xlink="http://www.w3.org/1999/xlink">
    <title>car</title>
    <g id="car" stroke="none" stroke-width="1" fill="none" fill-rule="evenodd">
        <g id="outlines" transform="translate(103.4918, 35.611)">
            <path d="M46.7735096,-2.5 C49.124107,-2.5 51.1468962,-1.04704573 52.9374605,1.52546709 L53.3834677,2.85121169 L56.1912138,71.323 L64.9280394,92.9629118 L65.1069652,93.779302 C65.541313,102.85653 65.541313,112.699519 65.1077376,123.309426 C64.6751033,133.896303 63.3563377,151.906697 61.1507862,177.364306 L60.4011239,178.942651 L48.5145175,190.477328 L45.0044393,190.449664 L33.4867635,178.914986 L32.7677037,177.391852 C30.4134411,153.318565 28.9041724,135.307821 28.2395086,123.346049 C27.5737936,111.365357 27.3342045,101.532612 27.5222588,93.8377121 L27.7311504,92.8966728 L37.1872138,71.282 L40.1189175,2.84668148 L40.579337,1.50471347 C42.4012904,-1.05704242 44.4320602,-2.5 46.7735096,-2.5 Z M46.7735096,2.5 C46.4365393,2.5 45.8582251,2.87311425 45.0993967,3.81292145 L45.0812138,3.835 L42.1631324,71.9644112 L41.9557846,72.8595504 L32.5092138,94.447 L32.5063761,94.5935666 C32.3543295,101.832177 32.5777368,110.998974 33.1778764,122.085448 L33.2318076,123.068648 C33.8917663,134.945745 35.395948,152.895784 37.7439639,176.905195 L37.6562138,176.015 L46.8012138,185.172 L56.2492138,176.003 L56.3268962,175.110527 C58.4056799,150.987048 59.662252,133.772365 60.0960264,123.487697 L60.1119072,123.105271 C60.5396656,112.63771 60.5396656,102.94166 60.1126795,94.0182799 L60.1312138,94.438 L51.393367,72.7933114 L51.2136841,71.959881 L48.4182138,3.821 L48.4011287,3.79717 C47.7103915,2.92422173 47.1736563,2.54796065 46.8379554,2.50433796 L46.7735096,2.5 Z" id="Path-25" fill="#007BFF" fill-rule="nonzero"></path>
            <path d="M85.1405328,8.68772923 L87.6405328,11.1877292 L87.6405328,28.9280366 L85.1405328,31.4280366 L71.1287642,31.4280366 L69.4120913,30.7454618 L63.0294918,24.7167292 L52.072434,24.7176328 L49.5758707,22.3486735 L48.9969285,11.3187699 L51.4934918,8.68772923 L85.1405328,8.68772923 Z M82.6404918,13.6877292 L54.1274918,13.6877292 L54.4444918,19.7167292 L64.0245236,19.7176328 L65.7411965,20.4002076 L72.1224918,26.4277292 L82.6404918,26.4277292 L82.6404918,13.6877292 Z" id="Path-26" fill="#007BFF" fill-rule="nonzero"></path>
            <path d="M42.1370962,8.68772923 L44.6370962,11.1877292 L44.6370962,28.9280366 L42.1370962,31.4280366 L28.1253275,31.4280366 L26.4086546,30.7454618 L20.0260551,24.7167292 L9.06899731,24.7176328 L6.572434,22.3486735 L5.99349183,11.3187699 L8.49005513,8.68772923 L42.1370962,8.68772923 Z M39.6370551,13.6877292 L11.1240551,13.6877292 L11.4410551,19.7167292 L21.0210869,19.7176328 L22.7377598,20.4002076 L29.1190551,26.4277292 L39.6370551,26.4277292 L39.6370551,13.6877292 Z" id="Path-26" fill="#007BFF" fill-rule="nonzero" transform="translate(25.3153, 20.0579) scale(-1, 1) translate(-25.3153, -20.0579)"></path>
            <path d="M52.8049353,40.5468904 L74.0565695,48.9115207 L75.3240682,50.7725532 L75.3240682,56.3192271 L74.047108,58.1839559 L54.3347205,65.8273409 L51.6167609,64.1050718 L50.0775141,42.5503825 L52.8049353,40.5468904 Z M54.292434,45.4309228 L55.413434,61.1179228 L71.323434,54.9489228 L71.323434,52.1339228 L54.292434,45.4309228 Z" id="Path-27" fill="#007BFF" fill-rule="nonzero"></path>
            <path d="M20.7998551,40.5468904 L42.0514894,48.9115207 L43.3189881,50.7725532 L43.3189881,56.3192271 L42.0420279,58.1839559 L22.3296404,65.8273409 L19.6116808,64.1050718 L18.072434,42.5503825 L20.7998551,40.5468904 Z M22.2873539,45.4309228 L23.4083539,61.1179228 L39.3183539,54.9489228 L39.3183539,52.1339228 L22.2873539,45.4309228 Z" id="Path-27" fill="#007BFF" fill-rule="nonzero" transform="translate(30.6957, 53.1871) scale(-1, 1) translate(-30.6957, -53.1871)"></path>
            <path d="M85.1405328,8.68772923 L87.6405328,11.1877292 L87.6405328,28.9280366 L85.1405328,31.4280366 L71.1287642,31.4280366 L69.4120913,30.7454618 L63.0294918,24.7167292 L52.072434,24.7176328 L49.5758707,22.3486735 L48.9969285,11.3187699 L51.4934918,8.68772923 L85.1405328,8.68772923 Z M82.6404918,13.6877292 L54.1274918,13.6877292 L54.4444918,19.7167292 L64.0245236,19.7176328 L65.7411965,20.4002076 L72.1224918,26.4277292 L82.6404918,26.4277292 L82.6404918,13.6877292 Z" id="Path-26" fill="#007BFF" fill-rule="nonzero"></path>
            <path d="M83.5826149,38.6200904 C86.8963234,38.6200904 89.5826149,41.3063819 89.5826149,44.6200904 L89.5826149,62.3321522 C89.5826149,65.6458607 86.8963234,68.3321522 83.5826149,68.3321522 L77,68.3321522 C73.6862915,68.3321522 71,65.6458607 71,62.3321522 L71,44.6200904 C71,41.3063819 73.6862915,38.6200904 77,38.6200904 L83.5826149,38.6200904 Z M83.5826149,44.6200904 L77,44.6200904 L77,62.3321522 L83.5826149,62.3321522 L83.5826149,44.6200904 Z" id="Path-28" fill="#007BFF" fill-rule="nonzero"></path>
            <path d="M16.5826149,38.6200904 C19.8963234,38.6200904 22.5826149,41.3063819 22.5826149,44.6200904 L22.5826149,62.3321522 C22.5826149,65.6458607 19.8963234,68.3321522 16.5826149,68.3321522 L10,68.3321522 C6.6862915,68.3321522 4,65.6458607 4,62.3321522 L4,44.6200904 C4,41.3063819 6.6862915,38.6200904 10,38.6200904 L16.5826149,38.6200904 Z M16.5826149,44.6200904 L10,44.6200904 L10,62.3321522 L16.5826149,62.3321522 L16.5826149,44.6200904 Z" id="Path-28" fill="#007BFF" fill-rule="nonzero" transform="translate(13.2913, 53.4761) scale(-1, 1) translate(-13.2913, -53.4761)"></path>
            <path d="M13.0164937,183.62009 C16.3302022,183.62009 19.0164937,186.306382 19.0164937,189.62009 L19.0164937,209.644569 C19.0164937,212.958278 16.3302022,215.644569 13.0164937,215.644569 L3,215.644569 C-0.313708499,215.644569 -3,212.958278 -3,209.644569 L-3,189.62009 C-3,186.306382 -0.313708499,183.62009 3,183.62009 L13.0164937,183.62009 Z M13.0164937,189.62009 L3,189.62009 L3,209.644569 L13.0164937,209.644569 L13.0164937,189.62009 Z" id="Path-28" fill="#007BFF" fill-rule="nonzero" transform="translate(8.0082, 199.6323) scale(-1, 1) translate(-8.0082, -199.6323)"></path>
            <path d="M90.0164937,183.62009 C93.3302022,183.62009 96.0164937,186.306382 96.0164937,189.62009 L96.0164937,209.644569 C96.0164937,212.958278 93.3302022,215.644569 90.0164937,215.644569 L80,215.644569 C76.6862915,215.644569 74,212.958278 74,209.644569 L74,189.62009 C74,186.306382 76.6862915,183.62009 80,183.62009 L90.0164937,183.62009 Z M90.0164937,189.62009 L80,189.62009 L80,209.644569 L90.0164937,209.644569 L90.0164937,189.62009 Z" id="Path-28" fill="#007BFF" fill-rule="nonzero"></path>
            <path d="M61.7666779,89.3602815 C70.7606411,88.9421643 76.8811376,90.3646645 80.1151828,93.9991231 L80.0534794,93.9319183 L80.1116319,93.9921401 C81.8930414,95.9155508 82.0804328,100.985608 81.5500342,111.852386 L81.5238132,112.382733 C81.5192266,112.474366 81.5146179,112.565901 81.5099857,112.657358 L81.4676213,113.478967 C81.0894758,120.682719 80.5366356,127.80523 79.0719783,145.3881 C79.0215738,145.993245 79.0215738,145.993245 78.9711941,146.598442 C77.938317,159.008669 77.3808607,166.135054 76.9772835,172.591976 L76.9313815,173.334297 L76.8867355,174.072252 C76.8720507,174.317684 76.8575569,174.562651 76.8432358,174.807415 L76.3136472,176.205502 C76.2835307,176.24385 76.2567605,176.277937 76.2311056,176.310604 L76.1806223,176.374885 L76.1291474,176.440429 C75.9515055,176.666623 75.6912393,176.998024 74.6873557,178.276286 C72.9481273,180.490874 72.8031916,180.675423 70.4945729,183.615026 L70.3414794,183.809918 L70.342338,208.829239 C70.342338,211.792718 67.998558,214.208778 65.0635452,214.324871 L64.842338,214.329239 L59.8514794,214.329239 L59.8514794,209.329239 L64.842338,209.329239 C65.1184804,209.329239 65.342338,209.105381 65.342338,208.829239 L65.342338,182.944526 L65.8761949,181.400414 C68.8577294,177.603977 68.8577294,177.603977 70.7550695,175.188062 C71.3072055,174.485018 71.6343972,174.0684 71.8466174,173.798176 L71.8974794,173.732918 L71.9179334,173.403392 C71.9329206,173.155637 71.9481067,172.907315 71.9635102,172.658163 L72.0103913,171.907954 C72.4147364,165.505516 72.9723974,158.391476 73.9884219,146.183737 C74.0388206,145.57831 74.0388206,145.57831 74.0892359,144.973036 C75.4009576,129.226122 75.9788983,121.896935 76.3544332,115.395177 L76.3856986,114.847533 C76.3959677,114.665528 76.4060881,114.484011 76.4160716,114.30281 L76.4456235,113.759991 L76.4744255,113.218057 C76.4933928,112.856836 76.5119076,112.495528 76.5300651,112.132774 C76.7679849,107.379557 76.8431444,103.682423 76.7438063,101.024981 C76.6930721,99.667767 76.5969622,98.6046582 76.4618929,97.865186 C76.4050597,97.5540383 76.3455111,97.3246976 76.2950034,97.1919368 L76.3164794,97.2539183 L76.2505564,97.1833693 C74.2531889,95.1128087 69.6673902,94.0544604 62.4817639,94.3342487 L61.9988704,94.3548873 L61.7666779,89.3602815 Z" id="Path-29" fill="#007BFF" fill-rule="nonzero"></path>
            <path d="M13.2428332,89.3602815 C22.2367964,88.9421643 28.3572928,90.3646645 31.5913381,93.9991231 L31.5296347,93.9319183 L31.5877872,93.9921401 C33.3691967,95.9155508 33.5565881,100.985608 33.0261894,111.852386 L32.9999685,112.382733 C32.9953818,112.474366 32.9907732,112.565901 32.986141,112.657358 L32.9437766,113.478967 C32.5656311,120.682719 32.0127909,127.80523 30.5481336,145.3881 C30.497729,145.993245 30.497729,145.993245 30.4473494,146.598442 C29.4144723,159.008669 28.857016,166.135054 28.4534388,172.591976 L28.4075368,173.334297 L28.3628908,174.072252 C28.348206,174.317684 28.3337122,174.562651 28.3193911,174.807415 L27.7898025,176.205502 C27.759686,176.24385 27.7329157,176.277937 27.7072609,176.310604 L27.6567776,176.374885 L27.6053027,176.440429 C27.4276607,176.666623 27.1673946,176.998024 26.163511,178.276286 C24.4242825,180.490874 24.2793468,180.675423 21.9707282,183.615026 L21.8176347,183.809918 L21.8184933,208.829239 C21.8184933,211.792718 19.4747133,214.208778 16.5397005,214.324871 L16.3184933,214.329239 L11.3276347,214.329239 L11.3276347,209.329239 L16.3184933,209.329239 C16.5946357,209.329239 16.8184933,209.105381 16.8184933,208.829239 L16.8184933,182.944526 L17.3523502,181.400414 C20.3338846,177.603977 20.3338846,177.603977 22.2312247,175.188062 C22.7833607,174.485018 23.1105525,174.0684 23.3227726,173.798176 L23.3736347,173.732918 L23.3940887,173.403392 C23.4090759,173.155637 23.424262,172.907315 23.4396655,172.658163 L23.4865466,171.907954 C23.8908917,165.505516 24.4485526,158.391476 25.4645772,146.183737 C25.5149759,145.57831 25.5149759,145.57831 25.5653912,144.973036 C26.8771129,129.226122 27.4550536,121.896935 27.8305885,115.395177 L27.8618539,114.847533 C27.872123,114.665528 27.8822433,114.484011 27.8922269,114.30281 L27.9217788,113.759991 L27.9505808,113.218057 C27.969548,112.856836 27.9880629,112.495528 28.0062204,112.132774 C28.2441402,107.379557 28.3192997,103.682423 28.2199616,101.024981 C28.1692274,99.667767 28.0731175,98.6046582 27.9380481,97.865186 C27.881215,97.5540383 27.8216664,97.3246976 27.7711587,97.1919368 L27.7926347,97.2539183 L27.7267117,97.1833693 C25.7293442,95.1128087 21.1435455,94.0544604 13.9579192,94.3342487 L13.4750257,94.3548873 L13.2428332,89.3602815 Z" id="Path-29" fill="#007BFF" fill-rule="nonzero" transform="translate(22.307, 151.8094) scale(-1, 1) translate(-22.307, -151.8094)"></path>
            <polygon id="Path-30" fill="#007BFF" fill-rule="nonzero" points="72.9611848 159.130188 77.1116635 163.463031 48.5217575 190.849623 44.3696222 190.848035 15.8234618 163.461443 19.9772537 159.131776 46.4483578 184.526609"></polygon>
            <path d="M59.8514794,201.371808 L62.3514794,203.871808 L62.3514794,219.872716 L59.8514794,222.372716 L33.559957,222.372716 L31.0603223,219.915448 L30.7867839,203.914539 L33.2864186,201.371808 L59.8514794,201.371808 Z M57.3514186,206.371808 L35.8294186,206.371808 L36.0174186,217.371808 L57.3514186,217.371808 L57.3514186,206.371808 Z" id="Path-31" fill="#007BFF" fill-rule="nonzero"></path>
            <path d="M33.2864186,213.719378 C34.9432729,213.719378 36.2864186,215.062523 36.2864186,216.719378 L36.2864186,228.277979 C36.2864186,229.934833 34.9432729,231.277979 33.2864186,231.277979 C31.6295644,231.277979 30.2864186,229.934833 30.2864186,228.277979 L30.2864186,216.719378 C30.2864186,215.062523 31.6295644,213.719378 33.2864186,213.719378 Z" id="Path-32" fill="#007BFF" fill-rule="nonzero"></path>
            <path d="M59.7864186,213.719378 C61.4432729,213.719378 62.7864186,215.062523 62.7864186,216.719378 L62.7864186,228.277979 C62.7864186,229.934833 61.4432729,231.277979 59.7864186,231.277979 C58.1295644,231.277979 56.7864186,229.934833 56.7864186,228.277979 L56.7864186,216.719378 C56.7864186,215.062523 58.1295644,213.719378 59.7864186,213.719378 Z" id="Path-32" fill="#007BFF" fill-rule="nonzero"></path>
            <path d="M46.4465182,100.813867 C50.0982792,100.813867 53.7104794,104.69607 53.7104794,108.374319 C53.7104794,112.052569 50.1371418,115.663788 46.4465182,115.663788 C42.7558945,115.663788 39.027128,112.120313 39.027128,108.374319 C39.027128,104.628325 42.7947571,100.813867 46.4465182,100.813867 Z" id="Path-33" fill="#D8EBFF"></path>
            <path d="M46.4465182,99.3138669 C50.9053158,99.3138669 55.2104794,103.843268 55.2104794,108.374319 C55.2104794,112.887534 50.9590927,117.163788 46.4465182,117.163788 C41.8958505,117.163788 37.527128,112.918591 37.527128,108.374319 C37.527128,103.813664 41.9525971,99.3138669 46.4465182,99.3138669 Z M46.4465182,102.313867 C43.620739,102.313867 40.527128,105.459437 40.527128,108.374319 C40.527128,111.242174 43.5337537,114.163788 46.4465182,114.163788 C49.2983092,114.163788 52.2104794,111.234584 52.2104794,108.374319 C52.2104794,105.467013 49.2134371,102.313867 46.4465182,102.313867 Z" id="Path-33" fill="#007BFF" fill-rule="nonzero"></path>
            <path d="M42.2145371,85.0109948 L50.3865217,85.0109948 C53.1233382,85.0109948 55.3515898,87.211305 55.3861236,89.9479036 L55.6726593,112.654155 C55.7073772,115.405338 53.5127897,117.667613 50.7618212,117.716458 L42.1380487,117.869578 C39.3770602,117.918601 37.0990958,115.720118 37.0500729,112.95913 L37.0494156,112.834222 L37.2146678,89.9748503 C37.2345278,87.2276032 39.4672182,85.0109948 42.2145371,85.0109948 Z M50.3865217,89.0109948 L42.2145371,89.0109948 C41.6650733,89.0109948 41.2185353,89.4543165 41.2145632,90.0037659 L41.0493111,112.863137 L41.0494426,112.888119 C41.0592471,113.440317 41.51484,113.880013 42.0670377,113.870369 L50.6908102,113.717089 C51.2410039,113.70732 51.6799214,113.254865 51.6730591,112.704628 L51.3864421,89.9983765 C51.3795353,89.4510568 50.933885,89.0109948 50.3865217,89.0109948 Z" id="Path-34" fill="#007BFF" fill-rule="nonzero"></path>
        </g>
    </g>
</svg>