<?xml version="1.0" encoding="UTF-8"?>
<svg width="300px" height="300px" viewBox="0 0 300 300" version="1.1" xmlns="http://www.w3.org/2000/svg" xmlns:xlink="http://www.w3.org/1999/xlink">
    <title>helicopter</title>
    <g id="helicopter" stroke="none" stroke-width="1" fill="none" fill-rule="evenodd">
        <g id="outlines" transform="translate(36.4249, 26.9481)">
            <path d="M114.883509,0 C120.381353,0 125.805969,17.6026718 131.157357,52.8080155 L131.157357,61.8992079 C124.111201,66.9199662 118.686584,69.4303453 114.883509,69.4303453 C111.080433,69.4303453 105.370181,66.9199662 97.7527524,61.8992079 L97.7527524,52.8080155 C103.675412,17.6026718 109.385664,0 114.883509,0 Z" id="Path-13" fill="#D8EBFF"></path>
            <path d="M114.883509,-1.5 C121.676132,-1.5 127.089784,16.0670936 132.640323,52.5825974 L132.657357,52.8080155 L132.657357,61.8992079 L132.027812,63.1208086 C124.746982,68.3087841 119.082115,70.9303453 114.883509,70.9303453 C110.703937,70.9303453 104.773341,68.3230971 96.9272617,63.1516316 L96.2527524,61.8992079 L96.2527524,52.8080155 L96.2735387,52.5591647 C102.413346,16.0630575 108.110747,-1.5 114.883509,-1.5 Z M114.883509,1.5 C110.660581,1.5 104.937479,19.1422862 99.2319661,53.0568664 L99.2527524,52.932 L99.2527524,61.088 L99.5111634,61.2551515 C106.276747,65.6186986 111.372001,67.8309018 114.66199,67.9270672 L114.883509,67.9303453 C118.139607,67.9303453 123.018096,65.7396711 129.38836,61.3102066 L129.656752,61.122 L129.656752,52.922 L129.519741,52.0214567 C124.465144,19.122948 119.152982,1.85086443 115.009969,1.50529009 L114.883509,1.5 Z" id="Path-13" fill="#007BFF" fill-rule="nonzero"></path>
            <path d="M114.883509,-2.5 C122.539318,-2.5 127.94566,15.0433748 133.628966,52.4323186 L133.657357,52.8080155 L133.657357,102.975302 L131.157357,105.475302 L97.7527524,105.475302 L95.2527524,102.975302 L95.2527524,52.8080155 L95.2873962,52.3932641 C101.571969,15.0366479 107.260803,-2.5 114.883509,-2.5 Z M114.883509,2.5 C113.75095,2.5 111.35848,6.25745059 108.855443,13.9734218 C106.04561,22.635135 103.160839,35.7306561 100.218109,53.222767 L100.252752,53.015 L100.252752,100.475 L128.656752,100.475 L128.656752,52.998 L128.545803,52.2671925 C125.979923,35.5387602 123.401897,22.9043674 120.826691,14.3981427 L120.686228,13.9382611 C118.313389,6.23848862 115.993656,2.5 114.883509,2.5 Z" id="Path-13" fill="#007BFF" fill-rule="nonzero"></path>
            <path d="M138.083371,27.7536234 C138.740572,27.249265 139.682203,27.3731688 140.186561,28.0303705 L145.586338,35.0665204 L145.896369,35.9797422 L145.896369,73.8449264 C145.896369,74.6733535 145.224796,75.3449264 144.396369,75.3449264 C143.567942,75.3449264 142.896369,74.6733535 142.896369,73.8449264 L142.895593,36.4885923 L137.806624,29.8568141 C137.331933,29.2382714 137.413766,28.3677778 137.972949,27.8470201 L138.083371,27.7536234 Z" id="Path-14" fill="#007BFF" fill-rule="nonzero"></path>
            <path d="M144.396369,81.5754264 C145.224796,81.5754264 145.896369,82.2469993 145.896369,83.0754264 L145.896369,94.8548236 C145.896369,95.6832507 145.224796,96.3548236 144.396369,96.3548236 C143.567942,96.3548236 142.896369,95.6832507 142.896369,94.8548236 L142.896369,83.0754264 C142.896369,82.2469993 143.567942,81.5754264 144.396369,81.5754264 Z" id="Path-14" fill="#007BFF" fill-rule="nonzero"></path>
            <path d="M84.0834466,27.7536234 C84.7406483,27.249265 85.6822788,27.3731688 86.1866373,28.0303705 L91.5864137,35.0665204 L91.8964449,35.9797422 L91.8964449,89.5750677 C91.8964449,90.4034949 91.224872,91.0750677 90.3964449,91.0750677 C89.5680177,91.0750677 88.8964449,90.4034949 88.8964449,89.5750677 L88.8956684,36.4885923 L83.8066996,29.8568141 C83.3320092,29.2382714 83.413842,28.3677778 83.9730251,27.8470201 L84.0834466,27.7536234 Z" id="Path-14" fill="#007BFF" fill-rule="nonzero" transform="translate(87.6965, 59.2593) scale(-1, 1) translate(-87.6965, -59.2593)"></path>
            <polygon id="Path-15" fill="#007BFF" fill-rule="nonzero" points="143.623733 48.5111139 145.169005 51.0825204 131.929994 59.0384331 130.384721 56.4670266"></polygon>
            <polygon id="Path-15" fill="#007BFF" fill-rule="nonzero" transform="translate(90.7769, 53.7748) scale(-1, 1) translate(-90.7769, -53.7748)" points="96.6237325 48.5111139 98.1690054 51.0825204 84.9299938 59.0384331 83.3847209 56.4670266"></polygon>
            <polygon id="Path-15" fill="#007BFF" fill-rule="nonzero" transform="translate(90.7769, 78.7748) scale(-1, 1) translate(-90.7769, -78.7748)" points="96.7809631 74.4288714 98.0117749 77.1647629 84.7727632 83.1206756 83.5419514 80.3847841"></polygon>
            <path d="M114.229771,75.3234646 L114.494984,75.3244896 C120.006094,75.4345384 125.385214,81.302903 125.385214,86.8586765 C125.385214,92.3666879 119.989746,97.4988605 114.415126,97.3875434 C108.837191,97.2761602 103.678647,92.1095621 103.678647,86.505102 C103.678647,80.7887973 108.919798,75.2131612 114.494984,75.3244896 L114.229771,75.3234646 Z M114.415126,79.3236923 C111.156845,79.2586292 107.678647,82.958803 107.678647,86.505102 C107.678647,89.9150165 111.07844,93.3201173 114.494984,93.3883407 C117.856302,93.4554613 121.385214,90.0987585 121.385214,86.8586765 C121.385214,83.4236693 117.686938,79.3890257 114.415126,79.3236923 Z" id="Path-16" fill="#007BFF" fill-rule="nonzero"></path>
            <path d="M219.247847,51.3590162 L220.974593,51.521638 C223.20509,52.5939812 224.799326,53.5315142 225.818856,54.4057712 C226.851806,55.2915363 227.96355,56.6829971 229.225283,58.6173038 L227.803673,62.3910523 L133.347089,88.7639814 L131.78251,88.691423 L124.090294,85.7524274 L122.90586,82.0252185 L126.463255,76.7174552 L127.896445,75.6935599 L219.247847,51.3590162 Z M219.627569,56.4317735 L130.092569,80.2827735 L128.806569,82.2007735 L132.796569,83.7257735 L222.936569,58.5577735 L222.927386,58.5483021 C222.841051,58.4584954 222.758382,58.3771256 222.679519,58.3042653 L222.564096,58.2013661 C222.058778,57.7680504 221.10659,57.1840647 219.741915,56.4893622 L219.627569,56.4317735 Z" id="Path-17" fill="#007BFF" fill-rule="nonzero"></path>
            <path d="M95.7894645,84.3618609 L97.4728771,84.5168596 C99.7637272,85.5861807 101.399603,86.5202171 102.443989,87.3897364 C103.504344,88.2725515 104.648719,89.6631903 105.947535,91.5964261 L104.526477,95.4035059 L7.23991307,121.776435 L5.53079933,121.630008 L-0.802185768,118.682114 L-2.07516217,115.50432 L-0.000880092346,110.205455 L1.701116,108.696405 L95.7894645,84.3618609 Z M96.1588235,89.4302197 L4.18882353,113.21622 L3.43582353,115.13922 L6.81282353,116.71122 L99.5978235,91.5582197 L99.4896494,91.4518672 C99.4469152,91.4110379 99.4051332,91.3723198 99.3643206,91.3357213 L99.2448081,91.2322934 C98.7196634,90.795076 97.7339677,90.2080304 96.3231777,89.5106815 L96.1588235,89.4302197 Z" id="Path-17" fill="#007BFF" fill-rule="nonzero" transform="translate(51.9362, 103.0691) scale(-1, -1) translate(-51.9362, -103.0691)"></path>
            <path d="M107.315367,100.475352 L121.681776,100.565474 L124.166093,103.065425 L124.166093,115.988805 L122.23631,118.422907 C118.862033,119.21337 116.293493,119.614248 114.455055,119.614248 C112.614648,119.614248 110.061991,119.21275 106.723137,118.421415 L104.799684,115.988805 L104.799684,102.975302 L107.315367,100.475352 Z M109.799684,105.490302 L109.799684,113.984302 L109.880971,114.001661 C111.751919,114.38614 113.218499,114.588127 114.253761,114.611874 L114.455055,114.614248 C115.499365,114.614248 117.047641,114.411411 119.066434,114.000744 L119.165684,113.979302 L119.165684,105.549302 L109.799684,105.490302 Z" id="Path-18" fill="#007BFF" fill-rule="nonzero"></path>
            <path d="M114.482889,114.614248 C115.863601,114.614248 116.982889,115.733536 116.982889,117.114248 L116.982889,171.752104 C116.982889,173.132816 115.863601,174.252104 114.482889,174.252104 C113.102177,174.252104 111.982889,173.132816 111.982889,171.752104 L111.982889,117.114248 C111.982889,115.733536 113.102177,114.614248 114.482889,114.614248 Z" id="Path-19" fill="#007BFF" fill-rule="nonzero"></path>
            <path d="M114.482889,184.023724 C115.863601,184.023724 116.982889,185.143012 116.982889,186.523724 L116.982889,232.141776 C116.982889,233.522488 115.863601,234.641776 114.482889,234.641776 C113.102177,234.641776 111.982889,233.522488 111.982889,232.141776 L111.982889,186.523724 C111.982889,185.143012 113.102177,184.023724 114.482889,184.023724 Z" id="Path-19" fill="#007BFF" fill-rule="nonzero"></path>
            <path d="M115.363757,168.767418 L140.979109,178.411388 L142.598241,180.751061 L142.598241,188.925275 L139.809658,191.408563 L114.487592,188.465091 L89.6335186,191.407937 L86.8395922,188.925275 L86.8395922,180.751061 L88.4442903,178.416873 L113.587587,168.772903 L115.363757,168.767418 Z M114.491592,173.781091 L91.8395922,182.469091 L91.8395922,186.111091 L114.188962,183.465857 L114.771471,183.46523 L137.597592,186.117091 L137.597592,182.480091 L114.491592,173.781091 Z" id="Path-20" fill="#007BFF" fill-rule="nonzero"></path>
            <path d="M123.374076,209.147419 C124.202503,209.147419 124.874076,209.818992 124.874076,210.647419 L124.874076,247.103738 C124.874076,247.932165 124.202503,248.603738 123.374076,248.603738 C122.545649,248.603738 121.874076,247.932165 121.874076,247.103738 L121.874076,210.647419 C121.874076,209.818992 122.545649,209.147419 123.374076,209.147419 Z" id="Path-21" fill="#007BFF" fill-rule="nonzero"></path>
        </g>
    </g>
</svg>