<?xml version="1.0" encoding="UTF-8"?>
<svg width="300px" height="300px" viewBox="0 0 300 300" version="1.1" xmlns="http://www.w3.org/2000/svg" xmlns:xlink="http://www.w3.org/1999/xlink">
    <title>robot</title>
    <g id="robot" stroke="none" stroke-width="1" fill="none" fill-rule="evenodd">
        <g id="outlines" transform="translate(76.1137, 68.4824)">
            <path d="M124.051608,-3 L127.051608,0 L127.051608,163.035167 L124.051608,166.035167 L23.772569,166.035167 L20.772569,163.035167 L20.772569,0 L23.772569,-3 L124.051608,-3 Z M121.051569,3 L26.772569,3 L26.772569,160.035 L121.051569,160.035 L121.051569,3 Z" id="Path-42" fill="#007BFF" fill-rule="nonzero"></path>
            <g id="tread" transform="translate(0, 25.4029)" fill="#007BFF" fill-rule="nonzero">
                <path d="M23.772569,-3 L26.772569,0 L26.772569,116.386387 L23.772569,119.386387 L0,119.386387 L-3,116.386387 L-3,0 L0,-3 L23.772569,-3 Z M20.772,3 L3,3 L3,113.386 L20.772,113.386 L20.772,3 Z" id="Path-43"></path>
                <polygon id="Path-44" points="0 17.3863324 23.772569 17.3863324 23.772569 13.3863324 0 13.3863324"></polygon>
                <polygon id="Path-44" points="1 101.886332 24.772569 101.886332 24.772569 97.8863324 1 97.8863324"></polygon>
                <polygon id="Path-44" points="0 87.8863324 23.772569 87.8863324 23.772569 83.8863324 0 83.8863324"></polygon>
                <polygon id="Path-44" points="0 73.8863324 23.772569 73.8863324 23.772569 69.8863324 0 69.8863324"></polygon>
                <polygon id="Path-44" points="0 59.8863324 23.772569 59.8863324 23.772569 55.8863324 0 55.8863324"></polygon>
                <polygon id="Path-44" points="0 45.8863324 23.772569 45.8863324 23.772569 41.8863324 0 41.8863324"></polygon>
                <polygon id="Path-44" points="0 31.8863324 23.772569 31.8863324 23.772569 27.8863324 0 27.8863324"></polygon>
            </g>
            <g id="tread" transform="translate(124, 29.4029)" fill="#007BFF" fill-rule="nonzero">
                <path d="M23.772569,-3 L26.772569,0 L26.772569,116.386387 L23.772569,119.386387 L0,119.386387 L-3,116.386387 L-3,0 L0,-3 L23.772569,-3 Z M20.772,3 L3,3 L3,113.386 L20.772,113.386 L20.772,3 Z" id="Path-43"></path>
                <polygon id="Path-44" points="0 17.3863324 23.772569 17.3863324 23.772569 13.3863324 0 13.3863324"></polygon>
                <polygon id="Path-44" points="1 101.886332 24.772569 101.886332 24.772569 97.8863324 1 97.8863324"></polygon>
                <polygon id="Path-44" points="0 87.8863324 23.772569 87.8863324 23.772569 83.8863324 0 83.8863324"></polygon>
                <polygon id="Path-44" points="0 73.8863324 23.772569 73.8863324 23.772569 69.8863324 0 69.8863324"></polygon>
                <polygon id="Path-44" points="0 59.8863324 23.772569 59.8863324 23.772569 55.8863324 0 55.8863324"></polygon>
                <polygon id="Path-44" points="0 45.8863324 23.772569 45.8863324 23.772569 41.8863324 0 41.8863324"></polygon>
                <polygon id="Path-44" points="0 31.8863324 23.772569 31.8863324 23.772569 27.8863324 0 27.8863324"></polygon>
            </g>
            <polygon id="Path-45" fill="#D8EBFF" points="73.7585011 66.2601356 109.490881 102.562338 73.9120883 138.327371 37.8959532 102.562338"></polygon>
            <path d="M71.6242965,64.1517782 L75.8965351,64.1556616 L111.628915,100.457864 L111.617731,104.678114 L76.038939,140.443146 L71.7982016,140.456099 L35.7820666,104.691066 L35.7617486,100.453981 L71.6242965,64.1517782 Z M73.7539532,70.5321356 L42.1329532,102.542136 L73.8989532,134.086136 L105.269953,102.551136 L73.7539532,70.5321356 Z" id="Path-45" fill="#007BFF" fill-rule="nonzero"></path>
        </g>
    </g>
</svg>