<?xml version="1.0" encoding="UTF-8"?>
<svg width="300px" height="300px" viewBox="0 0 300 300" version="1.1" xmlns="http://www.w3.org/2000/svg" xmlns:xlink="http://www.w3.org/1999/xlink">
    <title>sailplane</title>
    <g id="sailplane" stroke="none" stroke-width="1" fill="none" fill-rule="evenodd">
        <g id="outlines" transform="translate(9.7665, 68.06)">
            <path d="M153.060326,43.0676741 L247.912489,46.958369 L248.166652,46.9818352 L280.823552,51.6884457 L282.966929,54.162879 L282.966929,62.2832875 L280.553046,64.7818039 L148.086117,69.3475609 L145.565188,66.2818687 L150.523053,44.9983977 L153.060326,43.0676741 Z M154.923,48.1475736 L151.174,64.2375736 L277.966,59.8675736 L277.966,56.3275736 L247.575,51.9485736 L154.923,48.1475736 Z" id="Path-10" fill="#007BFF" fill-rule="nonzero"></path>
            <path d="M4.99513795,43.0676741 L99.8473016,46.958369 L100.101464,46.9818352 L132.758364,51.6884457 L134.901741,54.162879 L134.901741,62.2832875 L132.487858,64.7818039 L0.0209291394,69.3475609 L-2.5,66.2818687 L2.45786541,44.9983977 L4.99513795,43.0676741 Z M6.85781241,48.1475736 L3.10881241,64.2375736 L129.900812,59.8675736 L129.900812,56.3275736 L99.5098124,51.9485736 L6.85781241,48.1475736 Z" id="Path-10" fill="#007BFF" fill-rule="nonzero" transform="translate(66.2009, 56.2076) scale(-1, 1) translate(-66.2009, -56.2076)"></path>
            <path d="M140.659203,-3.72427959 L142.493627,-1.66120156 C151.010523,7.91729072 155.804876,17.5291318 156.791148,27.1690895 C157.761474,36.6531836 155.429451,50.0960921 149.84664,67.6083776 L149.949777,67.28 L146.756716,150.924207 L146.664911,153.328831 L134.618906,153.328831 L134.50983,150.943007 L130.683777,67.262 L130.521896,66.7080564 C125.619598,49.8497764 123.479622,36.8698274 124.138405,27.6736083 L124.173676,27.2169501 C124.97072,17.6046283 129.876711,7.96728298 138.787594,-1.69487518 L140.659203,-3.72427959 Z M140.589777,3.798 L140.241111,4.20755455 C133.45555,12.2261373 129.786471,20.0336092 129.156576,27.6301269 C128.441177,36.2578119 130.564348,49.130525 135.566292,66.1438864 L135.651412,66.433408 L135.665194,66.7348679 L139.394777,148.328 L141.851777,148.328 L144.966567,66.7536681 L144.979544,66.4137792 L145.082855,66.0897116 C150.475173,49.1749661 152.702739,36.3342039 151.817114,27.6779874 C151.032698,20.0110025 147.437405,12.2055827 140.96847,4.25788864 L140.589777,3.798 Z" id="Path-11" fill="#007BFF" fill-rule="nonzero"></path>
            <path d="M140.625364,0 C148.739017,9.23187046 153.298606,18.3730499 154.304131,27.4235385 C154.855579,32.386988 151.843565,37.5008718 145.268089,42.7651898 L135.251371,42.7651898 C128.924638,37.5176834 126.062556,32.4037996 126.665126,27.4235385 C127.744358,18.5036463 132.397771,9.36246685 140.625364,0 Z" id="Path-11" fill="#D8EBFF"></path>
            <path d="M141.752063,-0.990226849 C150.055393,8.45746154 154.752408,17.8741547 155.794958,27.257905 C156.413765,32.8276359 153.141651,38.3831236 146.205559,43.9361509 L145.268089,44.2651898 L135.251371,44.2651898 L134.293765,43.9197418 C127.613408,38.3789332 124.501435,32.8185523 125.175986,27.243365 C126.295155,17.9933924 131.085275,8.58366407 139.498615,-0.990226849 L141.752063,-0.990226849 Z M140.624527,2.299 L140.369547,2.6021783 C133.190921,11.1841299 129.132426,19.5191833 128.154266,27.6037119 C127.645785,31.8063247 130.023642,36.2679744 135.479828,40.9928558 L135.797527,41.265 L144.735527,41.265 L145.07433,40.9864873 C150.64366,36.3387717 153.169264,31.9588034 152.838897,27.8563309 L152.813304,27.5891719 C151.902915,19.3949788 147.940868,11.0696249 140.887171,2.61149255 L140.624527,2.299 Z" id="Path-11" fill="#007BFF" fill-rule="nonzero"></path>
            <path d="M158.016141,148.966784 L159.60758,149.538748 L166.316896,155.076751 L167.225457,157.004787 L167.225457,165.104348 L164.725457,167.604348 L115.74416,167.604348 L113.24416,165.104348 L113.24416,157.004787 L114.196531,155.041411 L121.222234,149.503408 L122.769863,148.966784 L158.016141,148.966784 Z M157.11716,153.966784 L123.63616,153.966784 L118.24416,158.216784 L118.24416,162.603784 L162.22516,162.603784 L162.22516,158.182784 L157.11716,153.966784 Z" id="Path-12" fill="#007BFF" fill-rule="nonzero"></path>
        </g>
    </g>
</svg>